<?xml version="1.0" standalone="no"?>
<!DOCTYPE svg PUBLIC "-//W3C//DTD SVG 20010904//EN"
 "http://www.w3.org/TR/2001/REC-SVG-20010904/DTD/svg10.dtd">
<svg version="1.0" xmlns="http://www.w3.org/2000/svg"
 width="1135.000000pt" height="1135.000000pt" viewBox="0 0 1135.000000 1135.000000"
 preserveAspectRatio="xMidYMid meet">
<metadata>
Created by potrace 1.11, written by Peter Selinger 2001-2013
</metadata>
<g transform="translate(0.000000,1135.000000) scale(0.100000,-0.100000)"
fill="#000000" stroke="none">
<path d="M10603 11258 c-39 -46 -86 -101 -104 -122 -19 -22 -95 -110 -169
-195 -74 -86 -149 -172 -165 -192 -38 -45 -259 -302 -301 -349 -17 -19 -66
-75 -109 -125 -101 -118 -170 -198 -224 -260 -24 -27 -53 -61 -65 -75 -21 -24
-253 -294 -300 -348 -13 -15 -58 -67 -101 -117 -42 -49 -87 -101 -99 -115 -12
-14 -97 -113 -190 -220 -92 -107 -190 -220 -216 -250 -27 -30 -123 -143 -215
-250 -211 -247 -189 -224 -206 -208 -8 8 -120 105 -249 217 -129 112 -242 210
-250 220 -8 9 -28 26 -44 39 -26 20 -56 46 -211 182 -28 25 -80 70 -116 101
-234 203 -332 289 -389 339 -36 32 -83 73 -105 91 -22 19 -42 36 -45 39 -7 7
-378 330 -414 361 -16 13 -39 33 -50 44 -12 11 -53 47 -91 80 -39 33 -72 62
-75 65 -3 3 -93 81 -200 174 -107 93 -202 176 -210 185 -14 15 -235 16 -2785
14 -1524 -1 -2777 -2 -2785 -2 -8 -1 5 -18 30 -40 25 -21 180 -155 345 -297
165 -142 318 -275 341 -294 132 -114 250 -216 260 -225 6 -6 35 -31 64 -56 29
-24 58 -49 64 -54 6 -6 58 -51 116 -100 58 -50 110 -94 116 -100 23 -21 135
-118 325 -281 107 -93 292 -252 410 -354 118 -102 225 -194 239 -206 51 -44
195 -169 200 -174 3 -3 67 -58 142 -123 76 -65 138 -121 138 -123 0 -4 -45
-56 -76 -88 -6 -6 -120 -137 -254 -291 -134 -154 -246 -282 -249 -285 -3 -3
-45 -51 -93 -106 -48 -56 -93 -108 -100 -116 -7 -7 -38 -43 -68 -78 -30 -36
-60 -69 -65 -75 -6 -5 -51 -57 -101 -115 -49 -58 -94 -110 -99 -116 -6 -6 -35
-39 -65 -74 -30 -34 -60 -68 -65 -74 -6 -6 -53 -60 -105 -121 -52 -60 -100
-114 -106 -120 -6 -5 -51 -57 -100 -115 -49 -57 -96 -111 -104 -120 -16 -17
-32 -36 -140 -160 -36 -41 -69 -80 -75 -86 -5 -6 -32 -37 -60 -69 -27 -32
-111 -128 -186 -213 l-136 -155 0 -2785 0 -2785 52 59 c42 47 243 282 413 479
14 17 41 48 61 71 33 37 73 83 190 218 24 28 53 62 65 76 77 91 212 248 225
261 9 9 36 40 61 70 25 29 59 69 76 89 37 40 217 250 284 329 25 29 52 61 60
70 26 30 125 143 135 155 6 6 65 75 133 154 67 78 177 206 244 285 68 78 127
147 133 153 5 6 29 33 52 60 50 59 69 81 138 159 29 33 65 76 81 95 16 19 44
51 62 71 18 20 39 45 46 54 13 18 33 3 246 -185 36 -31 124 -108 195 -170 72
-62 159 -139 195 -170 93 -82 461 -402 488 -425 52 -44 68 -58 102 -88 20 -18
53 -48 76 -67 22 -19 71 -62 109 -95 38 -33 76 -67 85 -75 8 -8 45 -40 80 -70
36 -30 67 -57 70 -60 3 -3 36 -32 75 -65 38 -33 75 -65 82 -72 7 -6 149 -130
315 -275 166 -144 318 -278 337 -295 24 -22 37 -29 42 -21 5 9 691 11 2783 11
1527 0 2776 3 2775 6 0 3 -92 84 -204 180 -112 96 -214 183 -227 195 -13 12
-52 46 -88 76 -36 30 -67 57 -70 60 -3 3 -120 105 -260 225 -140 121 -325 280
-410 353 -85 74 -213 184 -284 246 -110 94 -185 159 -411 355 -17 14 -62 53
-100 86 -39 33 -72 62 -75 65 -5 5 -117 102 -164 141 -16 13 -34 29 -40 34 -6
6 -76 67 -156 135 -80 69 -147 127 -150 130 -3 3 -37 33 -76 66 l-71 60 19 25
c11 13 32 38 46 54 15 17 59 66 97 110 39 44 82 93 96 110 14 16 48 55 75 85
27 31 72 82 99 115 28 32 57 66 65 75 8 9 71 81 140 160 109 126 154 179 195
224 21 23 133 152 156 180 13 16 29 34 35 40 13 14 282 321 314 360 14 16 30
34 35 40 6 6 39 45 75 86 73 84 73 83 235 270 65 74 144 164 175 200 32 36 73
83 91 105 19 22 36 42 39 45 4 4 40 46 157 180 12 14 38 43 57 65 l36 40 0
2783 c0 1530 -1 2782 -3 2782 -2 0 -35 -37 -74 -82z m-4743 -4528 c383 -64
718 -362 828 -735 12 -39 24 -86 27 -105 3 -19 8 -48 11 -65 3 -16 6 -77 6
-135 -1 -478 -323 -892 -792 -1017 -79 -22 -119 -26 -235 -27 -210 -2 -317 20
-480 99 -326 156 -549 469 -592 830 -12 99 -2 289 17 340 5 14 7 25 5 25 -9 0
59 178 92 240 219 407 662 626 1113 550z"/>
</g>
</svg>
