<svg xmlns="http://www.w3.org/2000/svg" viewBox="0 0 240 240" version="1.1" xml:space="preserve" stroke-linejoin="round"><path d="M11.8 122.2l0 117.8 90.3-104.7c-3.4-3.5-5.7-8.1-6.3-13.2l-84 0Z" fill="#74bee9"/><path d="M95.7 119.6c0-6 2.4-11.5 6.3-15.5l-42.5-36.7 -47.7 54.7 84 0c-0.1-0.8-0.1-1.7-0.1-2.5" fill="#488ecc"/><path d="M117.8 97.3l0-81.2 -117.8 0 102 88c4-4.2 9.7-6.8 15.9-6.8" fill="#89c765"/><path d="M118 97.3c6.3 0 12 2.6 16 6.8l36.4-42.1 -52.6-45.8 0 81.2c0.1 0 0.1 0 0.2 0" fill="#71bf44"/><path d="M223.9 117.8l0-117.8 -89.8 104.1c3.5 3.6 5.8 8.4 6.2 13.7l83.6 0Z" fill="#fec34d"/><path d="M140.4 119.6c0 6.2-2.5 11.8-6.6 15.8l42.7 36.8 47.4-54.4 -83.6 0c0 0.6 0.1 1.2 0.1 1.8" fill="#faa63f"/><path d="M176.4 172.3l-42.7-36.8c-0.1 0.1-0.2 0.2-0.3 0.3 -4 3.9-9.5 6.3-15.5 6.3 -0.1 0-0.1 0-0.2 0l0 81.4 117.8 0 -59.2-51.1Z" fill="#f36f42"/><path d="M102.1 135.3l-36.9 42.7 52.6 45.8 0-0.5 0-81.4c-6.1 0-11.7-2.6-15.7-6.6" fill="#ef4023"/></svg>